<?xml version="1.0" encoding="UTF-8"?> <svg xmlns="http://www.w3.org/2000/svg" width="102" height="50" viewBox="0 0 102 50" fill="none"><g clip-path="url(#clip0)"><path d="M71.9585 12.4341H62.7399H53.5594H44.3789L42.0933 21.5147H51.2738L46.6645 39.7137H55.8831L60.4543 21.5147H69.6348L71.9585 12.4341Z" fill="black"></path><path d="M92.6055 3.35352L88.0343 21.5148H78.8538L81.1394 12.4341H71.9589L69.6352 21.5148L67.3496 30.5954L65.064 39.7137H74.2445L76.5301 30.5954H85.7106L83.425 39.7137H92.6055L94.9292 30.5954L97.2148 21.5148L101.786 3.35352H92.6055Z" fill="#FF8300"></path><path d="M53.2164 6.44311L48.3404 0L19.6942 22.6827L14.8182 16.2396L4.60916 24.3406L0.761719 39.7136H9.94224L12.8373 28.1462L17.7133 34.5516L32.5698 22.7581L30.5889 30.5953L28.3033 39.7136H37.4838H46.6643L48.988 30.5953H39.8075L44.074 13.6775L53.2164 6.44311Z" fill="#FF8300"></path><path d="M6.05686 45.1018L6.20923 49.9247H4.99024L4.91405 47.777C4.91405 47.7393 4.91405 47.6639 4.91405 47.6263C4.91405 47.3625 4.91406 47.1741 4.99024 46.835C4.87596 47.1364 4.76168 47.3625 4.6474 47.6263L3.42841 49.9247H2.78082L2.36179 48.0407C2.24751 47.5886 2.20942 47.3248 2.17133 46.722C2.05705 47.3248 1.98086 47.5509 1.90467 47.8146L1.25708 49.887H0L1.56183 45.0641H2.78082L3.16176 46.6843C3.23794 47.0987 3.31413 47.4755 3.39032 47.9654C3.4665 47.7393 3.58078 47.4755 3.65697 47.3248L4.79977 45.1018H6.05686Z" fill="black"></path><path d="M8.83776 45.1016L8.22827 49.9245H7.00928L7.61877 45.1016H8.83776Z" fill="black"></path><path d="M12.342 47.4379L13.8657 49.887H12.4563L11.9992 49.1711C11.8468 48.945 11.6944 48.6436 11.542 48.2668C11.3897 48.5305 11.2373 48.7566 11.0849 48.945L10.3231 49.887H8.79932L10.9325 47.3625L9.52309 45.0641H10.9706L11.2754 45.6293C11.4659 46.0061 11.542 46.1568 11.7325 46.5336C11.9992 46.1568 12.0754 46.0061 12.2277 45.8177L12.8372 45.0641H14.3229L12.342 47.4379Z" fill="black"></path><path d="M14.8946 46.948H16.7611L16.6469 47.9277H14.7803L14.8946 46.948Z" fill="black"></path><path d="M19.6181 46.1566L19.161 49.9245H17.9039L18.361 46.1566H17.3325L17.4468 45.1016H20.7609L20.6466 46.1566H19.6181Z" fill="black"></path><path d="M23.9987 45.1018L23.8844 46.1568H22.4369L22.3226 46.948H23.6939L23.5797 48.003H22.2083L22.094 48.832H23.6178L23.5035 49.887H20.7607L21.3702 45.0641H23.9987V45.1018Z" fill="black"></path><path d="M28.4559 45.4031L28.3035 46.6088C27.9607 46.3074 27.5416 46.1567 27.1226 46.1567C26.2084 46.1567 25.5989 46.7596 25.5989 47.5508C25.5989 48.3421 26.1703 48.8319 26.9702 48.8319C27.3512 48.8319 27.694 48.7566 28.075 48.5305L27.9226 49.7739C27.3893 49.9623 27.1607 50 26.7798 50C25.3322 50 24.3418 49.0203 24.3418 47.5885C24.3418 46.119 25.5227 44.9886 27.0083 44.9886C27.5036 44.9886 27.9607 45.1017 28.4559 45.4031Z" fill="black"></path><path d="M33.5986 45.1016L32.9891 49.9245H31.7701L31.9987 47.9652H30.2083L29.9416 49.9245H28.7227L29.3322 45.1016H30.5511L30.3226 46.8725H32.113L32.3415 45.1016H33.5986Z" fill="black"></path><path d="M39.4269 45.1016L38.8174 49.9245H37.446L36.1508 47.7768C35.9223 47.4377 35.7699 47.0609 35.5413 46.571V46.7971C35.5413 47.1739 35.5413 47.4 35.5032 47.7014L35.2366 49.9245H34.0176L34.6271 45.1016H35.9603L37.3317 47.4377L37.5603 47.8144L37.7507 48.1912L37.8269 48.3796C37.8269 48.0782 37.865 47.8521 37.9031 47.5507L38.2079 45.1016H39.4269Z" fill="black"></path><path d="M45.2174 47.2494C45.2174 47.2871 45.2174 47.3247 45.2174 47.3624C45.2174 48.9449 44.1507 50 42.5889 50C40.989 50 39.9224 49.0203 39.9224 47.5508C39.9224 46.0437 41.0652 44.9886 42.6651 44.9886C44.1507 44.9886 45.1793 45.8929 45.2174 47.2494ZM43.9603 47.4001C43.9222 46.6465 43.3889 46.1567 42.627 46.1567C41.7889 46.1567 41.1794 46.7219 41.1794 47.5131C41.1794 48.3044 41.7128 48.8319 42.5508 48.8319C43.3889 48.8319 43.9603 48.2667 43.9603 47.4755C43.9603 47.4378 43.9603 47.4378 43.9603 47.4001Z" fill="black"></path><path d="M52.3022 45.1016L51.6927 49.9245H50.4737L50.7023 47.9652H48.9119L48.6453 49.9245H47.4263L48.0358 45.1016H49.2548L49.0262 46.8725H50.8166L51.0451 45.1016H52.3022Z" fill="black"></path><path d="M55.2358 47.8144L54.9692 49.9245H53.7502L54.0169 47.7768L52.7598 45.1016H54.1311L54.474 45.8928C54.6644 46.345 54.7025 46.3826 54.7406 46.5334C54.7406 46.571 54.7787 46.6087 54.7787 46.6841C54.8549 46.571 54.893 46.458 55.0073 46.3073L55.8453 45.1016H57.331L55.2358 47.8144Z" fill="black"></path><path d="M57.902 45.1016H59.2734C59.959 45.1016 60.6828 45.2146 61.2161 45.7044C61.6351 46.0812 61.8256 46.6464 61.8256 47.3246C61.8256 48.3796 61.4447 48.9448 60.9876 49.2839C60.2638 49.8868 59.3495 49.9245 58.8543 49.9245H57.2544L57.902 45.1016ZM59.0067 46.1566L58.6639 48.8695H59.0448C59.6924 48.8695 60.0352 48.6057 60.1495 48.4927C60.4162 48.2289 60.6066 47.8521 60.6066 47.4C60.6066 46.9855 60.4542 46.6464 60.2638 46.458C59.9971 46.2319 59.6543 46.1943 59.3876 46.1943H59.0067V46.1566Z" fill="black"></path><path d="M65.2545 48.0405L66.3973 49.9245H64.9497L63.845 48.0028L63.6165 49.9245H62.3975L63.007 45.1016H64.6069C65.2545 45.1016 65.6735 45.2146 65.9782 45.516C66.2068 45.7798 66.3592 46.1566 66.3592 46.6087C66.3592 47.0609 66.2449 47.4 65.9782 47.6637C65.7116 47.8521 65.5592 47.9275 65.2545 48.0405ZM64.0736 46.0435L63.9212 47.2869H64.1498C64.7593 47.2869 65.0259 47.0609 65.0259 46.6087C65.0259 46.1943 64.8354 46.0435 64.3402 46.0435H64.0736Z" fill="black"></path><path d="M68.2254 49.0955L67.8445 49.9245H66.4731L68.9111 45.1016H70.2825L71.4634 49.9245H70.1682L69.9777 49.0955H68.2254ZM68.6826 48.1536H69.7492L69.5587 47.2493C69.4825 46.8725 69.4825 46.8348 69.4444 46.6841C69.4444 46.6464 69.4063 46.571 69.4063 46.4957C69.3302 46.7594 69.254 46.9102 69.1778 47.0609L68.6826 48.1536Z" fill="black"></path><path d="M76.7963 45.1018L76.4535 47.89C76.3392 48.832 76.2249 49.1711 75.8821 49.4725C75.5011 49.8116 74.9297 50 74.206 50C72.9489 50 72.187 49.3972 72.187 48.3422C72.187 48.1914 72.2251 47.9654 72.2632 47.6639L72.5679 45.0641H73.7869L73.4822 47.6639C73.4822 47.8147 73.4441 47.9277 73.4441 48.0784C73.4441 48.5682 73.7107 48.832 74.2441 48.832C74.5488 48.832 74.7774 48.7566 74.9297 48.6059C75.0821 48.4175 75.1202 48.2668 75.1964 47.8147L75.5392 45.0641H76.7963V45.1018Z" fill="black"></path><path d="M79.0438 45.1016L78.5867 48.8695H80.1485L79.9962 49.9245H77.2153L77.8248 45.1016H79.0438Z" fill="black"></path><path d="M82.5106 45.1016L81.9011 49.9245H80.6821L81.2916 45.1016H82.5106Z" fill="black"></path><path d="M87.1199 45.4031L86.9676 46.6088C86.6247 46.3074 86.2057 46.1567 85.7867 46.1567C84.8724 46.1567 84.2629 46.7596 84.2629 47.5508C84.2629 48.3421 84.8343 48.8319 85.6343 48.8319C86.0152 48.8319 86.3581 48.7566 86.739 48.5305L86.5866 49.7739C86.0533 49.9623 85.8248 50 85.4438 50C83.9963 50 83.0059 49.0203 83.0059 47.5885C83.0059 46.119 84.1868 44.9886 85.6724 44.9886C86.1676 44.9886 86.6247 45.1017 87.1199 45.4031Z" fill="black"></path><path d="M90.929 45.4409L90.3956 46.3829C90.0528 46.1191 89.7862 46.0438 89.5576 46.0438C89.2148 46.0438 89.0243 46.1945 89.0243 46.4582C89.0243 46.6843 89.1386 46.7974 89.6338 47.0234C90.4337 47.4002 90.7004 47.7393 90.7004 48.3799C90.7004 49.3595 89.9385 50.0377 88.8338 50.0377C88.2624 50.0377 87.8434 49.9247 87.1958 49.5102L87.7672 48.5683C88.2243 48.8697 88.4529 48.9827 88.7957 48.9827C89.1767 48.9827 89.4433 48.7943 89.4433 48.4929C89.4433 48.2668 89.329 48.1538 88.8719 47.9277C87.9958 47.4756 87.7291 47.1741 87.7291 46.5336C87.7291 45.667 88.491 45.0264 89.5195 45.0264C90.0147 44.9888 90.4718 45.1395 90.929 45.4409Z" fill="black"></path></g><defs><clipPath id="clip0"><rect width="101.786" height="50" fill="white"></rect></clipPath></defs></svg> 